<svg xmlns="http://www.w3.org/2000/svg" xmlns:xlink="http://www.w3.org/1999/xlink" version="1.1" class="marks" width="1236" height="300" viewBox="0 0 1236 300"><rect width="1236" height="300" fill="#ffffff"/><g fill="none" stroke-miterlimit="10" transform="translate(22,6)"><g class="mark-group role-frame root" role="graphics-object" aria-roledescription="group mark container"><g transform="translate(0,0)"><path class="background" aria-hidden="true" d="M0.5,0.5h1151v225h-1151Z" stroke="#ddd"/><g><g class="mark-group role-axis" aria-hidden="true"><g transform="translate(0.5,0.5)"><path class="background" aria-hidden="true" d="M0,0h0v0h0Z" pointer-events="none"/><g><g class="mark-rule role-axis-grid" pointer-events="none"><line transform="translate(0,144)" x2="1151" y2="0" stroke="rgba(49, 51, 63, 0.2)" stroke-width="1" opacity="1"/><line transform="translate(0,114)" x2="1151" y2="0" stroke="rgba(49, 51, 63, 0.2)" stroke-width="1" opacity="1"/><line transform="translate(0,83)" x2="1151" y2="0" stroke="rgba(49, 51, 63, 0.2)" stroke-width="1" opacity="1"/><line transform="translate(0,53)" x2="1151" y2="0" stroke="rgba(49, 51, 63, 0.2)" stroke-width="1" opacity="1"/><line transform="translate(0,174)" x2="1151" y2="0" stroke="rgba(49, 51, 63, 0.2)" stroke-width="1" opacity="1"/><line transform="translate(0,204)" x2="1151" y2="0" stroke="rgba(49, 51, 63, 0.2)" stroke-width="1" opacity="1"/><line transform="translate(0,23)" x2="1151" y2="0" stroke="rgba(49, 51, 63, 0.2)" stroke-width="1" opacity="1"/></g></g><path class="foreground" aria-hidden="true" d="" pointer-events="none" display="none"/></g></g><g class="mark-group role-axis" role="graphics-symbol" aria-roledescription="axis" aria-label="X-axis for a discrete scale with 10 values: 5449411, 5449557, 5449605, 5449671, 5450246, ending with 5451315"><g transform="translate(0.5,225.5)"><path class="background" aria-hidden="true" d="M0,0h0v0h0Z" pointer-events="none"/><g><g class="mark-rule role-axis-tick" pointer-events="none"><line transform="translate(58,0)" x2="0" y2="5" stroke="#888" stroke-width="1" opacity="1"/><line transform="translate(173,0)" x2="0" y2="5" stroke="#888" stroke-width="1" opacity="1"/><line transform="translate(288,0)" x2="0" y2="5" stroke="#888" stroke-width="1" opacity="1"/><line transform="translate(403,0)" x2="0" y2="5" stroke="#888" stroke-width="1" opacity="1"/><line transform="translate(518,0)" x2="0" y2="5" stroke="#888" stroke-width="1" opacity="1"/><line transform="translate(633,0)" x2="0" y2="5" stroke="#888" stroke-width="1" opacity="1"/><line transform="translate(748,0)" x2="0" y2="5" stroke="#888" stroke-width="1" opacity="1"/><line transform="translate(863,0)" x2="0" y2="5" stroke="#888" stroke-width="1" opacity="1"/><line transform="translate(978,0)" x2="0" y2="5" stroke="#888" stroke-width="1" opacity="1"/><line transform="translate(1093,0)" x2="0" y2="5" stroke="#888" stroke-width="1" opacity="1"/></g><g class="mark-text role-axis-label" pointer-events="none"><text text-anchor="end" transform="translate(57.55000000000007,7) rotate(270) translate(0,4)" font-family="&quot;Source Sans Pro&quot;, sans-serif" font-size="12px" fill="#31333F" opacity="1">5449411</text><text text-anchor="end" transform="translate(172.65000000000006,7) rotate(270) translate(0,4)" font-family="&quot;Source Sans Pro&quot;, sans-serif" font-size="12px" fill="#31333F" opacity="1">5449557</text><text text-anchor="end" transform="translate(287.75000000000006,7) rotate(270) translate(0,4)" font-family="&quot;Source Sans Pro&quot;, sans-serif" font-size="12px" fill="#31333F" opacity="1">5449605</text><text text-anchor="end" transform="translate(402.85,7) rotate(270) translate(0,4)" font-family="&quot;Source Sans Pro&quot;, sans-serif" font-size="12px" fill="#31333F" opacity="1">5449671</text><text text-anchor="end" transform="translate(517.95,7) rotate(270) translate(0,4)" font-family="&quot;Source Sans Pro&quot;, sans-serif" font-size="12px" fill="#31333F" opacity="1">5450246</text><text text-anchor="end" transform="translate(633.0500000000001,7) rotate(270) translate(0,4)" font-family="&quot;Source Sans Pro&quot;, sans-serif" font-size="12px" fill="#31333F" opacity="1">5450830</text><text text-anchor="end" transform="translate(748.15,7) rotate(270) translate(0,4)" font-family="&quot;Source Sans Pro&quot;, sans-serif" font-size="12px" fill="#31333F" opacity="1">5450852</text><text text-anchor="end" transform="translate(863.25,7) rotate(270) translate(0,4)" font-family="&quot;Source Sans Pro&quot;, sans-serif" font-size="12px" fill="#31333F" opacity="1">5451021</text><text text-anchor="end" transform="translate(978.35,7) rotate(270) translate(0,4)" font-family="&quot;Source Sans Pro&quot;, sans-serif" font-size="12px" fill="#31333F" opacity="1">5451031</text><text text-anchor="end" transform="translate(1093.4499999999998,7) rotate(270) translate(0,4)" font-family="&quot;Source Sans Pro&quot;, sans-serif" font-size="12px" fill="#31333F" opacity="1">5451315</text></g><g class="mark-rule role-axis-domain" pointer-events="none"><line transform="translate(0,0)" x2="1151" y2="0" stroke="#888" stroke-width="1" opacity="1"/></g></g><path class="foreground" aria-hidden="true" d="" pointer-events="none" display="none"/></g></g><g class="mark-group role-axis" role="graphics-symbol" aria-roledescription="axis" aria-label="Y-axis for a linear scale with values from −0.3 to 1.2"><g transform="translate(0.5,0.5)"><path class="background" aria-hidden="true" d="M0,0h0v0h0Z" pointer-events="none"/><g><g class="mark-rule role-axis-tick" pointer-events="none"><line transform="translate(0,144)" x2="-5" y2="0" stroke="#888" stroke-width="1" opacity="1"/><line transform="translate(0,114)" x2="-5" y2="0" stroke="#888" stroke-width="1" opacity="1"/><line transform="translate(0,83)" x2="-5" y2="0" stroke="#888" stroke-width="1" opacity="1"/><line transform="translate(0,53)" x2="-5" y2="0" stroke="#888" stroke-width="1" opacity="1"/><line transform="translate(0,174)" x2="-5" y2="0" stroke="#888" stroke-width="1" opacity="1"/><line transform="translate(0,204)" x2="-5" y2="0" stroke="#888" stroke-width="1" opacity="1"/><line transform="translate(0,23)" x2="-5" y2="0" stroke="#888" stroke-width="1" opacity="1"/></g><g class="mark-text role-axis-label" pointer-events="none"><text text-anchor="end" transform="translate(-7,147.575275466412)" font-family="&quot;Source Sans Pro&quot;, sans-serif" font-size="12px" fill="#31333F" opacity="1">0.2</text><text text-anchor="end" transform="translate(-7,117.52522455495524)" font-family="&quot;Source Sans Pro&quot;, sans-serif" font-size="12px" fill="#31333F" opacity="1">0.4</text><text text-anchor="end" transform="translate(-7,87.47517364349851)" font-family="&quot;Source Sans Pro&quot;, sans-serif" font-size="12px" fill="#31333F" opacity="1">0.6</text><text text-anchor="end" transform="translate(-7,57.425122732041736)" font-family="&quot;Source Sans Pro&quot;, sans-serif" font-size="12px" fill="#31333F" opacity="1">0.8</text><text text-anchor="end" transform="translate(-7,177.62532637786873)" font-family="&quot;Source Sans Pro&quot;, sans-serif" font-size="12px" fill="#31333F" opacity="1">0.0</text><text text-anchor="end" transform="translate(-7,207.6753772893255)" font-family="&quot;Source Sans Pro&quot;, sans-serif" font-size="12px" fill="#31333F" opacity="1">−0.2</text><text text-anchor="end" transform="translate(-7,27.375071820584985)" font-family="&quot;Source Sans Pro&quot;, sans-serif" font-size="12px" fill="#31333F" opacity="1">1.0</text></g><g class="mark-rule role-axis-domain" pointer-events="none"><line transform="translate(0,225)" x2="0" y2="-225" stroke="#888" stroke-width="1" opacity="1"/></g></g><path class="foreground" aria-hidden="true" d="" pointer-events="none" display="none"/></g></g><g class="mark-group role-scope pathgroup" role="graphics-object" aria-roledescription="group mark container"><g transform="translate(0,0)"><path class="background" aria-hidden="true" d="M0,0h1151v225h-1151Z"/><g><g class="mark-line role-mark marks" clip-path="url(#clip1)" role="graphics-object" aria-roledescription="line mark container"><path aria-label="variable: SIM; index: 5449411; value: 1" role="graphics-symbol" aria-roledescription="line mark" d="M57.55000000000007,23.375071820584985L172.65000000000006,33.89258963959486L287.75000000000006,23.375071820584985L402.85,24.87757436615784L517.95,23.375071820584985L633.0500000000001,50.42011764089605L748.15,23.375071820584985L863.25,24.87757436615784L978.35,23.375071820584985L1093.4499999999998,35.39509218516766" stroke="#72b7b2" stroke-width="2" opacity="1"/></g></g><path class="foreground" aria-hidden="true" d="" display="none"/></g><g transform="translate(0,0)"><path class="background" aria-hidden="true" d="M0,0h1151v225h-1151Z"/><g><g class="mark-line role-mark marks" clip-path="url(#clip2)" role="graphics-object" aria-roledescription="line mark container"><path aria-label="variable: 1-SIM; index: 5449411; value: 0" role="graphics-symbol" aria-roledescription="line mark" d="M57.55000000000007,173.62532637786873L172.65000000000006,163.10780855885886L287.75000000000006,173.62532637786873L402.85,172.1228238322959L517.95,173.62532637786873L633.0500000000001,146.58028055755767L748.15,173.62532637786873L863.25,172.1228238322959L978.35,173.62532637786873L1093.4499999999998,161.60530601328605" stroke="#4c78a8" stroke-width="2" opacity="1"/></g></g><path class="foreground" aria-hidden="true" d="" display="none"/></g><g transform="translate(0,0)"><path class="background" aria-hidden="true" d="M0,0h1151v225h-1151Z"/><g><g class="mark-line role-mark marks" clip-path="url(#clip3)" role="graphics-object" aria-roledescription="line mark container"><path aria-label="variable: EQC; index: 5449411; value: 0" role="graphics-symbol" aria-roledescription="line mark" d="M57.55000000000007,173.62532637786873L172.65000000000006,173.62532637786873L287.75000000000006,173.62532637786873L402.85,173.62532637786873L517.95,173.62532637786873L633.0500000000001,26.38007691173067L748.15,26.38007691173067L863.25,32.390087094022036L978.35,32.390087094022036L1093.4499999999998,38.400097276313346" stroke="#e45756" stroke-width="2" opacity="1"/></g></g><path class="foreground" aria-hidden="true" d="" display="none"/></g><g transform="translate(0,0)"><path class="background" aria-hidden="true" d="M0,0h1151v225h-1151Z"/><g><g class="mark-line role-mark marks" clip-path="url(#clip4)" role="graphics-object" aria-roledescription="line mark container"><path aria-label="variable: COEC; index: 5449411; value: 0" role="graphics-symbol" aria-roledescription="line mark" d="M57.55000000000007,173.62532637786873L172.65000000000006,173.62532637786873L287.75000000000006,173.62532637786873L402.85,173.62532637786873L517.95,173.62532637786873L633.0500000000001,128.5502500106836L748.15,128.5502500106836L863.25,145.07777801198483L978.35,145.07777801198483L1093.4499999999998,166.11281365000454" stroke="#f58518" stroke-width="2" opacity="1"/></g></g><path class="foreground" aria-hidden="true" d="" display="none"/></g></g><g class="mark-group role-legend" role="graphics-symbol" aria-roledescription="legend" aria-label="Symbol legend for stroke color with 4 values: 1-SIM, COEC, EQC, SIM"><g transform="translate(1169,0)"><path class="background" aria-hidden="true" d="M0,0h44v54h-44Z" pointer-events="none"/><g><g class="mark-group role-legend-entry"><g transform="translate(0,0)"><path class="background" aria-hidden="true" d="M0,0h0v0h0Z" pointer-events="none"/><g><g class="mark-group role-scope" role="graphics-object" aria-roledescription="group mark container"><g transform="translate(0,0)"><path class="background" aria-hidden="true" d="M0,0h43.779998779296875v12h-43.779998779296875Z" pointer-events="none" opacity="1"/><g><g class="mark-symbol role-legend-symbol" pointer-events="none"><path transform="translate(6,6)" d="M-5,0L5,0" stroke="#4c78a8" stroke-width="1.5" opacity="1"/></g><g class="mark-text role-legend-label" pointer-events="none"><text text-anchor="start" transform="translate(16,10)" font-family="&quot;Source Sans Pro&quot;, sans-serif" font-size="12px" fill="#31333F" opacity="1">1-SIM</text></g></g><path class="foreground" aria-hidden="true" d="" pointer-events="none" display="none"/></g><g transform="translate(0,14)"><path class="background" aria-hidden="true" d="M0,0h43.779998779296875v12h-43.779998779296875Z" pointer-events="none" opacity="1"/><g><g class="mark-symbol role-legend-symbol" pointer-events="none"><path transform="translate(6,6)" d="M-5,0L5,0" stroke="#f58518" stroke-width="1.5" opacity="1"/></g><g class="mark-text role-legend-label" pointer-events="none"><text text-anchor="start" transform="translate(16,10)" font-family="&quot;Source Sans Pro&quot;, sans-serif" font-size="12px" fill="#31333F" opacity="1">COEC</text></g></g><path class="foreground" aria-hidden="true" d="" pointer-events="none" display="none"/></g><g transform="translate(0,28)"><path class="background" aria-hidden="true" d="M0,0h43.779998779296875v12h-43.779998779296875Z" pointer-events="none" opacity="1"/><g><g class="mark-symbol role-legend-symbol" pointer-events="none"><path transform="translate(6,6)" d="M-5,0L5,0" stroke="#e45756" stroke-width="1.5" opacity="1"/></g><g class="mark-text role-legend-label" pointer-events="none"><text text-anchor="start" transform="translate(16,10)" font-family="&quot;Source Sans Pro&quot;, sans-serif" font-size="12px" fill="#31333F" opacity="1">EQC</text></g></g><path class="foreground" aria-hidden="true" d="" pointer-events="none" display="none"/></g><g transform="translate(0,42)"><path class="background" aria-hidden="true" d="M0,0h43.779998779296875v12h-43.779998779296875Z" pointer-events="none" opacity="1"/><g><g class="mark-symbol role-legend-symbol" pointer-events="none"><path transform="translate(6,6)" d="M-5,0L5,0" stroke="#72b7b2" stroke-width="1.5" opacity="1"/></g><g class="mark-text role-legend-label" pointer-events="none"><text text-anchor="start" transform="translate(16,10)" font-family="&quot;Source Sans Pro&quot;, sans-serif" font-size="12px" fill="#31333F" opacity="1">SIM</text></g></g><path class="foreground" aria-hidden="true" d="" pointer-events="none" display="none"/></g></g></g><path class="foreground" aria-hidden="true" d="" pointer-events="none" display="none"/></g></g></g><path class="foreground" aria-hidden="true" d="" pointer-events="none" display="none"/></g></g></g><path class="foreground" aria-hidden="true" d="" display="none"/></g></g></g><defs><clipPath id="clip1"><rect x="0" y="0" width="1151" height="225"/></clipPath><clipPath id="clip2"><rect x="0" y="0" width="1151" height="225"/></clipPath><clipPath id="clip3"><rect x="0" y="0" width="1151" height="225"/></clipPath><clipPath id="clip4"><rect x="0" y="0" width="1151" height="225"/></clipPath></defs></svg>